<svg width="70" height="70" viewBox="0 0 70 70" fill="none" xmlns="http://www.w3.org/2000/svg">
<path d="M49.56 35.16C49.56 39.72 48.1867 42.9733 45.44 44.92C42.72 46.8667 38.8533 47.84 33.84 47.84C28.8533 47.84 25.0133 46.88 22.32 44.96C19.6267 43.0133 18.28 39.7467 18.28 35.16V32.8H25.8V35.2C25.8 39.5467 28.48 41.72 33.84 41.72C36.4 41.72 38.4 41.2 39.84 40.16C41.3067 39.12 42.04 37.4667 42.04 35.2V18.44H49.56V35.16Z" fill="white"/>
<rect x="5.5" y="5.5" width="59" height="59" rx="9.5" stroke="#FF0000"/>
<rect x="0.5" y="0.5" width="69" height="69" stroke="white"/>
</svg>
